<svg width="1024" height="1024" viewBox="0 0 1024 1024" fill="none" xmlns="http://www.w3.org/2000/svg">
  <rect width="1024" height="1024" fill="#F7F5EF"/>
  <text x="146" y="120" fill="#2F302B" font-family="Arial, sans-serif" font-size="38" font-weight="700">EXISTING SITE CONDITION</text>
  <text x="560" y="120" fill="#2F302B" font-family="Arial, sans-serif" font-size="38" font-weight="700">PROPOSED MASTER PLAN</text>

  <rect x="80" y="170" width="340" height="610" rx="34" fill="#D8D6D0" stroke="#7B7A74" stroke-width="4"/>
  <rect x="154" y="232" width="185" height="255" fill="#8B8B8B" stroke="#535353" stroke-width="5"/>
  <rect x="154" y="232" width="92" height="82" fill="#9B9B9B"/>
  <g fill="#80926C">
    <circle cx="144" cy="182" r="24"/>
    <circle cx="292" cy="178" r="20"/>
    <circle cx="362" cy="180" r="24"/>
    <circle cx="386" cy="694" r="20"/>
    <circle cx="112" cy="702" r="18"/>
  </g>
  <g opacity="0.5" stroke="#C3C0B8" stroke-width="2">
    <path d="M104 230H396"/>
    <path d="M104 280H396"/>
    <path d="M104 330H396"/>
    <path d="M104 380H396"/>
    <path d="M104 430H396"/>
    <path d="M104 480H396"/>
    <path d="M104 530H396"/>
    <path d="M104 580H396"/>
    <path d="M104 630H396"/>
    <path d="M104 680H396"/>
  </g>

  <path d="M470 470H560" stroke="#A8A17A" stroke-width="10" stroke-linecap="round"/>
  <path d="M532 438L580 470L532 502" stroke="#A8A17A" stroke-width="10" stroke-linecap="round" stroke-linejoin="round"/>

  <rect x="588" y="170" width="324" height="610" rx="4" fill="#E9E2C7" stroke="#7A7D5E" stroke-width="4"/>
  <rect x="657" y="230" width="180" height="210" fill="#C4B8A2" stroke="#6F6B57" stroke-width="5"/>
  <rect x="728" y="448" width="88" height="82" fill="#C4B8A2" stroke="#6F6B57" stroke-width="5"/>
  <path d="M640 766C640 766 642 660 700 600C758 540 780 466 774 408C766 328 830 270 830 270" stroke="#E7DEB8" stroke-width="36" stroke-linecap="round"/>
  <path d="M814 266C814 266 702 250 650 304C596 362 626 470 660 510C696 554 716 614 700 694C694 724 678 748 666 764" stroke="#5E8A3A" stroke-width="82" stroke-linecap="round" stroke-linejoin="round"/>
  <path d="M832 272C832 272 880 344 860 436C842 522 868 620 930 694" stroke="#5E8A3A" stroke-width="60" stroke-linecap="round" stroke-linejoin="round"/>
  <g fill="#7DA25A">
    <circle cx="616" cy="186" r="20"/>
    <circle cx="668" cy="176" r="24"/>
    <circle cx="908" cy="182" r="22"/>
    <circle cx="618" cy="724" r="22"/>
    <circle cx="674" cy="756" r="24"/>
    <circle cx="922" cy="732" r="22"/>
  </g>
  <g fill="#AFC78D">
    <circle cx="628" cy="322" r="28"/>
    <circle cx="638" cy="370" r="24"/>
    <circle cx="674" cy="662" r="26"/>
    <circle cx="896" cy="636" r="24"/>
  </g>
  <g fill="#8A6D4E" opacity="0.9">
    <rect x="704" y="526" width="64" height="18" rx="4" transform="rotate(-28 704 526)"/>
    <rect x="732" y="488" width="68" height="18" rx="4" transform="rotate(36 732 488)"/>
    <rect x="684" y="480" width="54" height="18" rx="4" transform="rotate(-58 684 480)"/>
  </g>

  <g fill="#EFE9D6" stroke="#9A936F" stroke-width="3">
    <rect x="922" y="252" width="84" height="64" rx="10"/>
    <rect x="922" y="338" width="84" height="72" rx="10"/>
    <rect x="922" y="430" width="84" height="72" rx="10"/>
    <rect x="922" y="522" width="84" height="72" rx="10"/>
    <rect x="922" y="614" width="84" height="72" rx="10"/>
  </g>
  <g fill="#6B6A62" font-family="Arial, sans-serif" font-size="18" font-weight="700">
    <text x="936" y="286">NEIGHBOR'S</text>
    <text x="936" y="308">PATIO</text>
    <text x="936" y="374">PLANTING</text>
    <text x="936" y="396">DENSITY</text>
    <text x="936" y="466">COURTYARD</text>
    <text x="936" y="488">DATA</text>
    <text x="936" y="558">VEGETATION</text>
    <text x="936" y="580">MASSING</text>
    <text x="936" y="650">NEW SHADE</text>
    <text x="936" y="672">TREES</text>
  </g>

  <text x="876" y="814" fill="#58584F" font-family="Arial, sans-serif" font-size="28" font-weight="700">LEGEND</text>
  <rect x="876" y="834" width="22" height="10" fill="#D2D6C8"/>
  <rect x="876" y="856" width="22" height="10" fill="#B7D8A6"/>
  <rect x="876" y="878" width="22" height="10" fill="#B8996B"/>
  <rect x="876" y="900" width="22" height="10" fill="#98C783"/>
  <rect x="876" y="922" width="22" height="10" fill="#E6DEB4"/>
  <g fill="#67675F" font-family="Arial, sans-serif" font-size="16" font-weight="700">
    <text x="908" y="844">LAWN</text>
    <text x="908" y="866">SHRUB BORDER</text>
    <text x="908" y="888">PAVING</text>
    <text x="908" y="910">PLANTING</text>
    <text x="908" y="932">WALKWAY</text>
  </g>
</svg>
